<svg width="1024" height="1024" viewBox="0 0 1024 1024" fill="none" xmlns="http://www.w3.org/2000/svg">
<rect width="1024" height="1024" rx="120" fill="#000630"/>
<path d="M512.03 510.243L504.228 63.6071C504.152 59.2452 507.667 55.6682 512.03 55.6682V55.6682C516.392 55.6682 519.907 59.2452 519.831 63.6071L512.03 510.243Z" fill="url(#paint0_linear_834_4160)"/>
<path d="M512.488 510.304L620.549 76.8679C621.605 72.6348 625.926 70.0895 630.14 71.2187V71.2187C634.353 72.3478 636.823 76.7126 635.62 80.9062L512.488 510.304Z" fill="url(#paint1_linear_834_4160)"/>
<path d="M512.914 510.472L729.474 119.774C731.589 115.958 736.422 114.618 740.2 116.799V116.799C743.978 118.981 745.234 123.836 742.987 127.575L512.914 510.472Z" fill="url(#paint2_linear_834_4160)"/>
<path d="M513.272 510.778L823.573 189.443C826.603 186.304 831.618 186.261 834.703 189.345V189.345C837.788 192.43 837.744 197.445 834.606 200.476L513.272 510.778Z" fill="url(#paint3_linear_834_4160)"/>
<path d="M513.542 511.149L896.436 281.075C900.175 278.828 905.031 280.084 907.212 283.862V283.862C909.393 287.64 908.053 292.473 904.237 294.588L513.542 511.149Z" fill="url(#paint4_linear_834_4160)"/>
<path d="M513.707 511.573L943.101 388.44C947.295 387.237 951.659 389.707 952.789 393.921V393.921C953.918 398.135 951.372 402.456 947.139 403.511L513.707 511.573Z" fill="url(#paint5_linear_834_4160)"/>
<path d="M513.762 512.053L960.394 504.251C964.756 504.175 968.333 507.69 968.333 512.053V512.053C968.333 516.415 964.756 519.93 960.394 519.854L513.762 512.053Z" fill="url(#paint6_linear_834_4160)"/>
<path d="M513.695 512.506L947.128 620.568C951.361 621.623 953.906 625.945 952.777 630.159V630.159C951.648 634.373 947.283 636.842 943.09 635.639L513.695 512.506Z" fill="url(#paint7_linear_834_4160)"/>
<path d="M513.506 512.916L904.202 729.477C908.017 731.592 909.358 736.425 907.176 740.203V740.203C904.995 743.981 900.14 745.237 896.4 742.99L513.506 512.916Z" fill="url(#paint8_linear_834_4160)"/>
<path d="M513.218 513.278L834.551 823.581C837.689 826.611 837.733 831.626 834.648 834.711V834.711C831.563 837.796 826.548 837.752 823.518 834.614L513.218 513.278Z" fill="url(#paint9_linear_834_4160)"/>
<path d="M512.854 513.555L742.926 896.453C745.173 900.192 743.918 905.047 740.139 907.229V907.229C736.361 909.41 731.529 908.07 729.414 904.254L512.854 513.555Z" fill="url(#paint10_linear_834_4160)"/>
<path d="M512.427 513.72L635.559 943.118C636.762 947.312 634.292 951.677 630.078 952.806V952.806C625.865 953.935 621.544 951.389 620.488 947.156L512.427 513.72Z" fill="url(#paint11_linear_834_4160)"/>
<path d="M511.968 513.759L519.769 960.394C519.845 964.756 516.33 968.333 511.968 968.333V968.333C507.605 968.333 504.09 964.756 504.166 960.394L511.968 513.759Z" fill="url(#paint12_linear_834_4160)"/>
<path d="M511.511 513.698L403.449 947.134C402.394 951.367 398.073 953.912 393.859 952.783V952.783C389.645 951.654 387.175 947.289 388.378 943.095L511.511 513.698Z" fill="url(#paint13_linear_834_4160)"/>
<path d="M511.088 513.529L294.528 904.227C292.413 908.043 287.58 909.383 283.802 907.202V907.202C280.024 905.021 278.768 900.165 281.015 896.426L511.088 513.529Z" fill="url(#paint14_linear_834_4160)"/>
<path d="M510.726 513.223L200.425 834.558C197.395 837.696 192.38 837.74 189.295 834.655V834.655C186.211 831.57 186.254 826.555 189.393 823.525L510.726 513.223Z" fill="url(#paint15_linear_834_4160)"/>
<path d="M510.452 512.851L127.558 742.925C123.818 745.172 118.963 743.916 116.782 740.138V740.138C114.6 736.36 115.941 731.527 119.756 729.412L510.452 512.851Z" fill="url(#paint16_linear_834_4160)"/>
<path d="M510.288 512.428L80.8932 635.561C76.6996 636.764 72.3348 634.294 71.2057 630.08V630.08C70.0765 625.866 72.6219 621.545 76.8549 620.49L510.288 512.428Z" fill="url(#paint17_linear_834_4160)"/>
<path d="M510.233 511.966L63.6005 519.766C59.2386 519.842 55.6616 516.327 55.6616 511.965V511.965C55.6616 507.602 59.2386 504.087 63.6006 504.163L510.233 511.966Z" fill="url(#paint18_linear_834_4160)"/>
<path d="M510.298 511.495L76.8659 403.432C72.6328 402.377 70.0875 398.056 71.2166 393.842V393.842C72.3457 389.628 76.7106 387.158 80.9042 388.361L510.298 511.495Z" fill="url(#paint19_linear_834_4160)"/>
<path d="M510.483 511.085L119.788 294.523C115.973 292.408 114.632 287.575 116.814 283.797V283.797C118.995 280.019 123.85 278.763 127.59 281.01L510.483 511.085Z" fill="url(#paint20_linear_834_4160)"/>
<path d="M510.776 510.74L189.443 200.436C186.305 197.406 186.262 192.391 189.346 189.306V189.306C192.431 186.221 197.446 186.265 200.476 189.403L510.776 510.74Z" fill="url(#paint21_linear_834_4160)"/>
<path d="M511.143 510.445L281.072 127.548C278.825 123.808 280.081 118.953 283.859 116.772V116.772C287.637 114.59 292.469 115.931 294.584 119.746L511.143 510.445Z" fill="url(#paint22_linear_834_4160)"/>
<path d="M511.579 510.298L388.448 80.8999C387.246 76.7063 389.715 72.3414 393.929 71.2123V71.2123C398.143 70.0832 402.464 72.6285 403.519 76.8615L511.579 510.298Z" fill="url(#paint23_linear_834_4160)"/>
<path d="M512.266 510.255L562.828 66.422C563.322 62.0874 567.274 58.9999 571.599 59.5693V59.5693C575.924 60.1387 578.942 64.1439 578.297 68.4586L512.266 510.255Z" fill="white"/>
<path d="M512.706 510.386L676.417 94.7631C678.016 90.7041 682.632 88.7445 686.662 90.414V90.414C690.693 92.0835 692.572 96.7334 690.832 100.734L512.706 510.386Z" fill="white"/>
<path d="M513.101 510.608L778.804 151.519C781.399 148.012 786.365 147.314 789.826 149.97V149.97C793.287 152.626 793.898 157.603 791.182 161.017L513.101 510.608Z" fill="white"/>
<path d="M513.425 510.942L863.013 232.859C866.427 230.143 871.405 230.754 874.06 234.215V234.215C876.716 237.676 876.018 242.642 872.511 245.237L513.425 510.942Z" fill="white"/>
<path d="M513.641 511.357L923.29 333.229C927.29 331.489 931.94 333.368 933.61 337.399V337.399C935.279 341.429 933.32 346.046 929.26 347.644L513.641 511.357Z" fill="white"/>
<path d="M513.751 511.803L955.544 445.77C959.859 445.125 963.864 448.144 964.434 452.469V452.469C965.003 456.794 961.915 460.746 957.581 461.24L513.751 511.803Z" fill="white"/>
<path d="M513.749 512.269L957.578 562.833C961.913 563.326 965.001 567.278 964.431 571.604V571.604C963.862 575.929 959.856 578.947 955.542 578.302L513.749 512.269Z" fill="white"/>
<path d="M513.622 512.722L929.242 676.435C933.301 678.034 935.26 682.65 933.591 686.681V686.681C931.921 690.711 927.271 692.59 923.271 690.85L513.622 512.722Z" fill="white"/>
<path d="M513.376 513.109L872.462 778.814C875.969 781.409 876.667 786.375 874.011 789.837V789.837C871.355 793.298 866.377 793.909 862.963 791.193L513.376 513.109Z" fill="white"/>
<path d="M513.041 513.408L791.122 862.999C793.838 866.413 793.227 871.391 789.766 874.047V874.047C786.305 876.702 781.339 876.004 778.744 872.497L513.041 513.408Z" fill="white"/>
<path d="M512.636 513.636L690.762 923.288C692.501 927.289 690.622 931.939 686.592 933.608V933.608C682.561 935.278 677.945 933.318 676.346 929.259L512.636 513.636Z" fill="white"/>
<path d="M512.197 513.755L578.228 955.551C578.873 959.865 575.855 963.871 571.53 964.44V964.44C567.204 965.009 563.253 961.922 562.759 957.587L512.197 513.755Z" fill="white"/>
<path d="M511.735 513.745L461.172 957.577C460.678 961.912 456.726 965 452.401 964.43V964.43C448.076 963.861 445.058 959.856 445.703 955.541L511.735 513.745Z" fill="white"/>
<path d="M511.299 513.613L347.587 929.236C345.988 933.295 341.372 935.255 337.341 933.585V933.585C333.311 931.916 331.432 927.266 333.172 923.265L511.299 513.613Z" fill="white"/>
<path d="M510.9 513.392L245.196 872.481C242.601 875.988 237.635 876.686 234.174 874.03V874.03C230.713 871.374 230.102 866.397 232.818 862.982L510.9 513.392Z" fill="white"/>
<path d="M510.575 513.058L160.987 791.142C157.572 793.857 152.595 793.246 149.939 789.785V789.785C147.283 786.324 147.981 781.358 151.488 778.763L510.575 513.058Z" fill="white"/>
<path d="M510.36 512.644L100.71 690.771C96.7096 692.511 92.0598 690.632 90.3903 686.602V686.602C88.7208 682.571 90.6804 677.955 94.7394 676.356L510.36 512.644Z" fill="white"/>
<path d="M510.24 512.197L68.447 578.229C64.1323 578.873 60.1271 575.855 59.5576 571.53V571.53C58.9882 567.205 62.0758 563.253 66.4104 562.759L510.24 512.197Z" fill="white"/>
<path d="M510.251 511.731L66.4217 461.167C62.0872 460.674 58.9996 456.722 59.569 452.396V452.396C60.1385 448.071 64.1437 445.053 68.4584 445.698L510.251 511.731Z" fill="white"/>
<path d="M510.378 511.277L94.7594 347.564C90.7004 345.965 88.7408 341.349 90.4103 337.318V337.318C92.0798 333.288 96.7297 331.409 100.73 333.149L510.378 511.277Z" fill="white"/>
<path d="M510.62 510.891L151.534 245.185C148.027 242.59 147.329 237.623 149.985 234.162V234.162C152.641 230.701 157.619 230.09 161.033 232.806L510.62 510.891Z" fill="white"/>
<path d="M510.959 510.575L232.878 160.984C230.162 157.57 230.774 152.593 234.235 149.937V149.937C237.696 147.281 242.662 147.979 245.257 151.486L510.959 510.575Z" fill="white"/>
<path d="M511.364 510.347L333.239 100.694C331.499 96.6937 333.378 92.0438 337.409 90.3743V90.3743C341.439 88.7048 346.055 90.6644 347.654 94.7235L511.364 510.347Z" fill="white"/>
<path d="M511.799 510.245L445.768 68.4487C445.123 64.134 448.141 60.1289 452.467 59.5595V59.5595C456.792 58.99 460.744 62.0776 461.238 66.4122L511.799 510.245Z" fill="white"/>
<g filter="url(#filter0_f_834_4160)">
<path fill-rule="evenodd" clip-rule="evenodd" d="M511.996 271.059C511.996 404.127 619.868 512.001 752.936 512.001C619.868 512.001 511.996 619.874 511.996 752.942C511.996 619.874 404.124 512.001 271.056 512.001C404.124 512.001 511.996 404.127 511.996 271.059Z" fill="#000630"/>
</g>
<defs>
<filter id="filter0_f_834_4160" x="268.056" y="268.059" width="487.88" height="487.883" filterUnits="userSpaceOnUse" color-interpolation-filters="sRGB">
<feFlood flood-opacity="0" result="BackgroundImageFix"/>
<feBlend mode="normal" in="SourceGraphic" in2="BackgroundImageFix" result="shape"/>
<feGaussianBlur stdDeviation="1.5" result="effect1_foregroundBlur_834_4160"/>
</filter>
<linearGradient id="paint0_linear_834_4160" x1="512.03" y1="510.243" x2="512.03" y2="55.6682" gradientUnits="userSpaceOnUse">
<stop stop-color="#FFD900"/>
<stop offset="1" stop-color="#D9BA07"/>
</linearGradient>
<linearGradient id="paint1_linear_834_4160" x1="512.488" y1="510.304" x2="630.141" y2="71.2191" gradientUnits="userSpaceOnUse">
<stop stop-color="#FFD900"/>
<stop offset="1" stop-color="#D9BA07"/>
</linearGradient>
<linearGradient id="paint2_linear_834_4160" x1="512.914" y1="510.472" x2="740.203" y2="116.801" gradientUnits="userSpaceOnUse">
<stop stop-color="#FFD900"/>
<stop offset="1" stop-color="#D9BA07"/>
</linearGradient>
<linearGradient id="paint3_linear_834_4160" x1="513.272" y1="510.778" x2="834.705" y2="189.348" gradientUnits="userSpaceOnUse">
<stop stop-color="#FFD900"/>
<stop offset="1" stop-color="#D9BA07"/>
</linearGradient>
<linearGradient id="paint4_linear_834_4160" x1="513.542" y1="511.149" x2="907.213" y2="283.865" gradientUnits="userSpaceOnUse">
<stop stop-color="#FFD900"/>
<stop offset="1" stop-color="#D9BA07"/>
</linearGradient>
<linearGradient id="paint5_linear_834_4160" x1="513.707" y1="511.573" x2="952.789" y2="393.922" gradientUnits="userSpaceOnUse">
<stop stop-color="#FFD900"/>
<stop offset="1" stop-color="#D9BA07"/>
</linearGradient>
<linearGradient id="paint6_linear_834_4160" x1="513.762" y1="512.053" x2="968.333" y2="512.053" gradientUnits="userSpaceOnUse">
<stop stop-color="#FFD900"/>
<stop offset="1" stop-color="#D9BA07"/>
</linearGradient>
<linearGradient id="paint7_linear_834_4160" x1="513.695" y1="512.506" x2="952.778" y2="630.157" gradientUnits="userSpaceOnUse">
<stop stop-color="#FFD900"/>
<stop offset="1" stop-color="#D9BA07"/>
</linearGradient>
<linearGradient id="paint8_linear_834_4160" x1="513.506" y1="512.916" x2="907.178" y2="740.201" gradientUnits="userSpaceOnUse">
<stop stop-color="#FFD900"/>
<stop offset="1" stop-color="#D9BA07"/>
</linearGradient>
<linearGradient id="paint9_linear_834_4160" x1="513.218" y1="513.278" x2="834.65" y2="834.709" gradientUnits="userSpaceOnUse">
<stop stop-color="#FFD900"/>
<stop offset="1" stop-color="#D9BA07"/>
</linearGradient>
<linearGradient id="paint10_linear_834_4160" x1="512.854" y1="513.555" x2="740.142" y2="907.227" gradientUnits="userSpaceOnUse">
<stop stop-color="#FFD900"/>
<stop offset="1" stop-color="#D9BA07"/>
</linearGradient>
<linearGradient id="paint11_linear_834_4160" x1="512.427" y1="513.72" x2="630.08" y2="952.805" gradientUnits="userSpaceOnUse">
<stop stop-color="#FFD900"/>
<stop offset="1" stop-color="#D9BA07"/>
</linearGradient>
<linearGradient id="paint12_linear_834_4160" x1="511.968" y1="513.759" x2="511.968" y2="968.333" gradientUnits="userSpaceOnUse">
<stop stop-color="#FFD900"/>
<stop offset="1" stop-color="#D9BA07"/>
</linearGradient>
<linearGradient id="paint13_linear_834_4160" x1="511.511" y1="513.698" x2="393.857" y2="952.782" gradientUnits="userSpaceOnUse">
<stop stop-color="#FFD900"/>
<stop offset="1" stop-color="#D9BA07"/>
</linearGradient>
<linearGradient id="paint14_linear_834_4160" x1="511.088" y1="513.529" x2="283.799" y2="907.2" gradientUnits="userSpaceOnUse">
<stop stop-color="#FFD900"/>
<stop offset="1" stop-color="#D9BA07"/>
</linearGradient>
<linearGradient id="paint15_linear_834_4160" x1="510.726" y1="513.223" x2="189.293" y2="834.653" gradientUnits="userSpaceOnUse">
<stop stop-color="#FFD900"/>
<stop offset="1" stop-color="#D9BA07"/>
</linearGradient>
<linearGradient id="paint16_linear_834_4160" x1="510.452" y1="512.851" x2="116.78" y2="740.135" gradientUnits="userSpaceOnUse">
<stop stop-color="#FFD900"/>
<stop offset="1" stop-color="#D9BA07"/>
</linearGradient>
<linearGradient id="paint17_linear_834_4160" x1="510.288" y1="512.428" x2="71.2052" y2="630.078" gradientUnits="userSpaceOnUse">
<stop stop-color="#FFD900"/>
<stop offset="1" stop-color="#D9BA07"/>
</linearGradient>
<linearGradient id="paint18_linear_834_4160" x1="510.233" y1="511.966" x2="55.6616" y2="511.965" gradientUnits="userSpaceOnUse">
<stop stop-color="#FFD900"/>
<stop offset="1" stop-color="#D9BA07"/>
</linearGradient>
<linearGradient id="paint19_linear_834_4160" x1="510.298" y1="511.495" x2="71.2162" y2="393.844" gradientUnits="userSpaceOnUse">
<stop stop-color="#FFD900"/>
<stop offset="1" stop-color="#D9BA07"/>
</linearGradient>
<linearGradient id="paint20_linear_834_4160" x1="510.483" y1="511.085" x2="116.812" y2="283.799" gradientUnits="userSpaceOnUse">
<stop stop-color="#FFD900"/>
<stop offset="1" stop-color="#D9BA07"/>
</linearGradient>
<linearGradient id="paint21_linear_834_4160" x1="510.776" y1="510.74" x2="189.344" y2="189.309" gradientUnits="userSpaceOnUse">
<stop stop-color="#FFD900"/>
<stop offset="1" stop-color="#D9BA07"/>
</linearGradient>
<linearGradient id="paint22_linear_834_4160" x1="511.143" y1="510.445" x2="283.856" y2="116.773" gradientUnits="userSpaceOnUse">
<stop stop-color="#FFD900"/>
<stop offset="1" stop-color="#D9BA07"/>
</linearGradient>
<linearGradient id="paint23_linear_834_4160" x1="511.579" y1="510.298" x2="393.927" y2="71.2127" gradientUnits="userSpaceOnUse">
<stop stop-color="#FFD900"/>
<stop offset="1" stop-color="#D9BA07"/>
</linearGradient>
</defs>
</svg>
