<svg
          viewBox="0 0 611 281"
          fill="none"
          xmlns="http://www.w3.org/2000/svg"
        >
          <g filter="url(#filter0_d_6_66)">
            <path
              fill-rule="evenodd"
              clip-rule="evenodd"
              d="M602.558 165.895V215.252H575.898V268.914H514.578V215.252H415.798L412.447 177.798L514.578 14.6642V12.0859H575.898V165.895H602.558ZM571.898 169.895H598.558V211.252H571.898V264.914H518.578V211.252H419.456L416.551 178.781L518.407 16.0859H571.898V169.895ZM518.578 169.895H468.504L514.818 91.9648L518.578 85.736V169.895ZM514.578 165.895V100.199L475.535 165.895H514.578Z"
              fill="url(#paint0_linear_6_66)"
            />
          </g>
          <g filter="url(#filter1_d_6_66)">
            <path
              fill-rule="evenodd"
              clip-rule="evenodd"
              d="M341.813 265.895L341.803 265.899C330.908 270.209 318.893 272.332 305.81 272.332C295.323 272.332 285.477 270.977 276.296 268.234C267.063 265.476 258.7 261.208 251.237 255.43L251.208 255.409L251.181 255.386C243.833 249.484 237.549 242.166 232.315 233.483C227.049 224.745 223.038 214.431 220.228 202.606L220.224 202.588L220.22 202.57C217.52 190.712 216.189 177.361 216.189 162.546V118.283C216.189 99.5577 218.21 83.3108 222.341 69.618L222.346 69.6029L222.351 69.5878C226.587 55.9381 232.7 44.4734 240.773 35.3158C248.809 26.2004 258.328 19.4431 269.304 15.1008L269.311 15.0981L269.318 15.0953C280.318 10.7909 292.384 8.66797 305.468 8.66797C315.95 8.66797 325.742 10.0224 334.817 12.7677C344.047 15.5257 352.408 19.7928 359.87 25.5695C367.362 31.3699 373.668 38.6532 378.803 47.3654C384.068 56.1058 388.017 66.4182 390.71 78.2357C393.53 89.9952 394.917 103.356 394.917 118.283V162.546C394.917 181.052 392.838 197.241 388.593 211.045C384.475 224.805 378.422 236.334 370.344 245.501C362.417 254.626 352.899 261.437 341.824 265.891L341.813 265.895ZM367.333 242.868C374.966 234.209 380.777 223.215 384.765 209.885C388.866 196.555 390.917 180.775 390.917 162.546V118.283C390.917 103.586 389.55 90.5407 386.815 79.1475C384.195 67.6403 380.378 57.7282 375.365 49.4111C370.466 41.0941 364.485 34.2012 357.421 28.7324C350.357 23.2637 342.439 19.2191 333.666 16.5986C325.007 13.9782 315.608 12.668 305.468 12.668C292.821 12.668 281.257 14.7188 270.775 18.8203C260.408 22.9219 251.407 29.3021 243.773 37.9609C236.14 46.6198 230.272 57.5573 226.171 70.7734C222.183 83.9896 220.189 99.8262 220.189 118.283V162.546C220.189 177.129 221.5 190.174 224.12 201.682C226.854 213.189 230.728 223.101 235.741 231.418C240.754 239.735 246.736 246.685 253.686 252.268C260.749 257.736 268.668 261.781 277.44 264.401C286.213 267.022 295.67 268.332 305.81 268.332C318.456 268.332 329.963 266.281 340.331 262.18C350.813 257.964 359.813 251.527 367.333 242.868ZM332.105 89.6655L332.099 89.6253C331.219 83.4684 329.92 78.3965 328.256 74.3424L328.24 74.3015L328.224 74.2601C326.658 70.1895 324.747 67.0914 322.575 64.8252C320.359 62.5127 317.851 60.8665 315.028 59.8317L314.951 59.8035L314.876 59.7722C312.11 58.6276 308.991 58.0254 305.468 58.0254C301.015 58.0254 297.154 58.9319 293.796 60.6587C290.558 62.3243 287.706 65.0144 285.29 68.9392L285.278 68.959L285.266 68.9787C282.888 72.7434 280.914 78.0857 279.487 85.2069C278.184 92.1727 277.51 100.845 277.51 111.276V169.211C277.51 177.608 277.957 184.863 278.832 191C279.823 197.153 281.124 202.319 282.702 206.543C284.375 210.606 286.348 213.792 288.56 216.204C290.769 218.501 293.268 220.138 296.078 221.168C299.015 222.245 302.247 222.804 305.81 222.804C310.28 222.804 314.081 221.947 317.309 220.342C320.424 218.682 323.224 215.995 325.645 212.061L325.652 212.049L325.66 212.037C328.158 208.04 330.132 202.582 331.441 195.487L331.447 195.458L331.453 195.428C332.866 188.361 333.597 179.64 333.597 169.211V111.276C333.597 102.879 333.092 95.6997 332.111 89.7055L332.105 89.6655ZM319.14 223.898C315.266 225.835 310.823 226.804 305.81 226.804C301.822 226.804 298.119 226.177 294.701 224.924C291.283 223.671 288.264 221.677 285.644 218.942C283.023 216.094 280.801 212.448 278.979 208.005C277.27 203.448 275.902 197.979 274.877 191.599C273.965 185.218 273.51 177.756 273.51 169.211V111.276C273.51 100.681 274.193 91.737 275.561 84.4453C277.042 77.0397 279.149 71.1722 281.884 66.8428C284.618 62.3994 287.979 59.1523 291.967 57.1016C295.954 55.0508 300.455 54.0254 305.468 54.0254C309.455 54.0254 313.101 54.709 316.405 56.0762C319.823 57.3294 322.842 59.3232 325.463 62.0576C328.083 64.792 330.248 68.3809 331.957 72.8242C333.78 77.2676 335.147 82.6794 336.059 89.0596C337.084 95.3258 337.597 102.731 337.597 111.276V169.211C337.597 179.807 336.856 188.807 335.375 196.213C334.008 203.618 331.9 209.6 329.052 214.157C326.317 218.601 323.013 221.848 319.14 223.898Z"
              fill="url(#paint1_linear_6_66)"
            />
          </g>
          <g filter="url(#filter2_d_6_66)">
            <path
              fill-rule="evenodd"
              clip-rule="evenodd"
              d="M198.554 165.895V215.252H171.894V268.914H110.574V215.252H11.7945L8.44336 177.798L110.574 14.6641V12.0859H171.894V165.895H198.554ZM167.894 169.895H194.554V211.252H167.894V264.914H114.574V211.252H15.4525L12.5473 178.781L114.403 16.0859H167.894V169.895ZM114.574 169.895H64.5004L110.814 91.9648L114.574 85.736V169.895ZM110.574 165.895V100.199L71.5307 165.895H110.574Z"
              fill="url(#paint2_linear_6_66)"
            />
          </g>
          <defs>
            <filter
              id="filter0_d_6_66"
              x="404.447"
              y="4.08594"
              width="206.111"
              height="272.828"
              filterUnits="userSpaceOnUse"
              color-interpolation-filters="sRGB"
            >
              <feFlood flood-opacity="0" result="BackgroundImageFix" />
              <feColorMatrix
                in="SourceAlpha"
                type="matrix"
                values="0 0 0 0 0 0 0 0 0 0 0 0 0 0 0 0 0 0 127 0"
                result="hardAlpha"
              />
              <feOffset />
              <feGaussianBlur stdDeviation="4" />
              <feColorMatrix type="matrix" values="0 0 0 0 0.26 0 0 0 0 0 0 0 0 0 1 0 0 0 0.3 0" />
              <feBlend mode="normal" in2="BackgroundImageFix" result="effect1_dropShadow_6_66" />
              <feBlend
                mode="normal"
                in="SourceGraphic"
                in2="effect1_dropShadow_6_66"
                result="shape"
              />
            </filter>
            <filter
              id="filter1_d_6_66"
              x="208.189"
              y="0.667969"
              width="194.729"
              height="279.664"
              filterUnits="userSpaceOnUse"
              color-interpolation-filters="sRGB"
            >
              <feFlood flood-opacity="0" result="BackgroundImageFix" />
              <feColorMatrix
                in="SourceAlpha"
                type="matrix"
                values="0 0 0 0 0 0 0 0 0 0 0 0 0 0 0 0 0 0 127 0"
                result="hardAlpha"
              />
              <feOffset />
              <feGaussianBlur stdDeviation="4" />
              <feColorMatrix type="matrix" values="0 0 0 0 0.26 0 0 0 0 0 0 0 0 0 1 0 0 0 0.3 0" />
              <feBlend mode="normal" in2="BackgroundImageFix" result="effect1_dropShadow_6_66" />
              <feBlend
                mode="normal"
                in="SourceGraphic"
                in2="effect1_dropShadow_6_66"
                result="shape"
              />
            </filter>
            <filter
              id="filter2_d_6_66"
              x="0.443359"
              y="4.08594"
              width="206.111"
              height="272.828"
              filterUnits="userSpaceOnUse"
              color-interpolation-filters="sRGB"
            >
              <feFlood flood-opacity="0" result="BackgroundImageFix" />
              <feColorMatrix
                in="SourceAlpha"
                type="matrix"
                values="0 0 0 0 0 0 0 0 0 0 0 0 0 0 0 0 0 0 127 0"
                result="hardAlpha"
              />
              <feOffset />
              <feGaussianBlur stdDeviation="4" />
              <feColorMatrix type="matrix" values="0 0 0 0 0.26 0 0 0 0 0 0 0 0 0 1 0 0 0 0.3 0" />
              <feBlend mode="normal" in2="BackgroundImageFix" result="effect1_dropShadow_6_66" />
              <feBlend
                mode="normal"
                in="SourceGraphic"
                in2="effect1_dropShadow_6_66"
                result="shape"
              />
            </filter>
            <linearGradient
              id="paint0_linear_6_66"
              x1="412.447"
              y1="12.0859"
              x2="624.469"
              y2="31.3"
              gradientUnits="userSpaceOnUse"
            >
              <stop stop-color="#FFD900" />
              <stop offset="1" stop-color="#1B1BFF" />
            </linearGradient>
            <linearGradient
              id="paint1_linear_6_66"
              x1="216.189"
              y1="8.66797"
              x2="415.778"
              y2="25.2315"
              gradientUnits="userSpaceOnUse"
            >
              <stop stop-color="#FFD900" />
              <stop offset="1" stop-color="#1B1BFF" />
            </linearGradient>
            <linearGradient
              id="paint2_linear_6_66"
              x1="8.44336"
              y1="12.0859"
              x2="220.465"
              y2="31.3"
              gradientUnits="userSpaceOnUse"
            >
              <stop stop-color="#FFD900" />
              <stop offset="1" stop-color="#1B1BFF" />
            </linearGradient>
          </defs>
        </svg>