<svg viewBox="0 0 1198 212" fill="none" xmlns="http://www.w3.org/2000/svg">

<path d="M30.1602 4.21387L-2345.9 215.925" stroke="white" stroke-miterlimit="10"/>
<path d="M75.6662 4.21387L-2110.31 215.925" stroke="white" stroke-miterlimit="10"/>
<path d="M121.174 4.21387L-1874.72 215.925" stroke="white" stroke-miterlimit="10"/>
<path d="M166.681 4.21387L-1639.13 215.925" stroke="white" stroke-miterlimit="10"/>
<path d="M212.188 4.21387L-1403.54 215.925" stroke="white" stroke-miterlimit="10"/>
<path d="M257.694 4.21387L-1167.94 215.925" stroke="white" stroke-miterlimit="10"/>
<path d="M303.203 4.21387L-932.351 215.925" stroke="white" stroke-miterlimit="10"/>
<path d="M348.71 4.21387L-696.758 215.925" stroke="white" stroke-miterlimit="10"/>
<path d="M394.217 4.21387L-461.166 215.925" stroke="white" stroke-miterlimit="10"/>
<path d="M439.724 4.21387L-225.573 215.925" stroke="white" stroke-miterlimit="10"/>
<path d="M485.233 4.21387L10.0195 215.925" stroke="white" stroke-miterlimit="10"/>
<path d="M530.74 4.21387L245.611 215.925" stroke="white" stroke-miterlimit="10"/>
<path d="M576.247 4.21387L481.204 215.925" stroke="white" stroke-miterlimit="10"/>
<path d="M621.755 4.21387L716.796 215.925" stroke="white" stroke-miterlimit="10"/>
<path d="M667.262 4.21387L952.389 215.925" stroke="white" stroke-miterlimit="10"/>
<path d="M712.77 4.21387L1187.98 215.925" stroke="white" stroke-miterlimit="10"/>
<path d="M758.275 4.21387L1423.57 215.925" stroke="white" stroke-miterlimit="10"/>
<path d="M803.784 4.21387L1659.16 215.925" stroke="white" stroke-miterlimit="10"/>
<path d="M849.29 4.21387L1894.76 215.925" stroke="white" stroke-miterlimit="10"/>
<path d="M894.799 4.21387L2130.35 215.925" stroke="white" stroke-miterlimit="10"/>
<path d="M940.305 4.21387L2365.94 215.925" stroke="white" stroke-miterlimit="10"/>
<path d="M985.812 4.21387L2601.53 215.925" stroke="white" stroke-miterlimit="10"/>
<path d="M1031.32 4.21387L2837.13 215.925" stroke="white" stroke-miterlimit="10"/>
<path d="M1076.83 4.21387L3072.72 215.925" stroke="white" stroke-miterlimit="10"/>
<path d="M1122.33 4.21387L3308.31 215.925" stroke="white" stroke-miterlimit="10"/>
<path d="M1167.84 4.21387L3543.9 215.925" stroke="white" stroke-miterlimit="10"/>
<path d="M1227.62 4.21387H-29.6201" stroke="white" stroke-miterlimit="10"/>
<path d="M1250.48 6.05713H-52.4766" stroke="white" stroke-miterlimit="10"/>
<path d="M1275.06 8.03857H-77.0576" stroke="white" stroke-miterlimit="10"/>
<path d="M1301.57 10.1772H-103.566" stroke="white" stroke-miterlimit="10"/>
<path d="M1330.24 12.4878H-132.239" stroke="white" stroke-miterlimit="10"/>
<path d="M1361.35 14.9971H-163.351" stroke="white" stroke-miterlimit="10"/>
<path d="M1395.23 17.7285H-197.229" stroke="white" stroke-miterlimit="10"/>
<path d="M1432.26 20.7144H-234.256" stroke="white" stroke-miterlimit="10"/>
<path d="M1472.9 23.9907H-274.897" stroke="white" stroke-miterlimit="10"/>
<path d="M1517.71 27.6035H-319.704" stroke="white" stroke-miterlimit="10"/>
<path d="M1567.35 31.606H-369.347" stroke="white" stroke-miterlimit="10"/>
<path d="M1622.66 36.0659H-424.66" stroke="white" stroke-miterlimit="10"/>
<path d="M1684.68 41.0659H-486.675" stroke="white" stroke-miterlimit="10"/>
<path d="M1754.69 46.7104H-556.688" stroke="white" stroke-miterlimit="10"/>
<path d="M1834.35 53.1343H-636.354" stroke="white" stroke-miterlimit="10"/>
<path d="M1925.82 60.5083H-727.816" stroke="white" stroke-miterlimit="10"/>
<path d="M2031.91 69.062H-833.905" stroke="white" stroke-miterlimit="10"/>
<path d="M2156.43 79.103H-958.434" stroke="white" stroke-miterlimit="10"/>
<path d="M2304.67 91.0542H-1106.67" stroke="white" stroke-miterlimit="10"/>
<path d="M2484.08 105.521H-1286.08" stroke="white" stroke-miterlimit="10"/>
<path d="M2705.68 123.388H-1507.68" stroke="white" stroke-miterlimit="10"/>
<path d="M2986.33 146.016H-1788.32" stroke="white" stroke-miterlimit="10"/>
<path d="M3353.23 175.599H-2155.23" stroke="white" stroke-miterlimit="10"/>

</svg>
