<svg viewBox="0 0 48 48" fill="none" xmlns="http://www.w3.org/2000/svg">
<path d="M32.4853 15.5147C37.1716 20.201 37.1716 27.799 32.4853 32.4853M15.5147 32.4852C10.8284 27.7989 10.8284 20.2009 15.5147 15.5146M9.85786 38.1421C2.04738 30.3316 2.04738 17.6684 9.85786 9.85786M38.1421 9.85796C45.9526 17.6684 45.9526 30.3317 38.1421 38.1422M28 24C28 26.2091 26.2091 28 24 28C21.7909 28 20 26.2091 20 24C20 21.7909 21.7909 20 24 20C26.2091 20 28 21.7909 28 24Z" stroke="url(#paint0_linear_15_171)" stroke-width="2" stroke-linecap="round" stroke-linejoin="round"/>
<defs>
<linearGradient id="paint0_linear_15_171" x1="24" y1="9.85786" x2="24" y2="38.1422" gradientUnits="userSpaceOnUse">
<stop stop-color="#71A2FF"/>
<stop offset="1" stop-color="#F7ECFF" stop-opacity="0.9"/>
</linearGradient>
</defs>
</svg>
