<svg viewBox="0 0 48 48" fill="none" xmlns="http://www.w3.org/2000/svg">
<path d="M22.604 43.2297C23.0468 43.4881 23.2682 43.6172 23.5806 43.6842C23.8231 43.7362 24.1769 43.7362 24.4194 43.6842C24.7318 43.6172 24.9532 43.4881 25.396 43.2297C29.2921 40.9568 40 33.8169 40 24V16.4C40 14.2522 40 13.1783 39.6689 12.416C39.3324 11.6412 38.9972 11.229 38.3071 10.7418C37.6282 10.2624 36.2973 9.98565 33.6354 9.43204C30.7016 8.82187 28.4486 7.72007 26.3888 6.12664C25.401 5.36253 24.9071 4.98048 24.5207 4.87627C24.1129 4.76632 23.8871 4.76632 23.4793 4.87627C23.0929 4.98048 22.599 5.36253 21.6112 6.12664C19.5514 7.72007 17.2984 8.82187 14.3646 9.43204C11.7027 9.98565 10.3718 10.2624 9.69289 10.7418C9.00284 11.229 8.66757 11.6412 8.33107 12.416C8 13.1783 8 14.2522 8 16.4V24C8 33.8169 18.7079 40.9568 22.604 43.2297Z" stroke="url(#paint0_linear_15_193)" stroke-width="2" stroke-linecap="round" stroke-linejoin="round"/>
<defs>
<linearGradient id="paint0_linear_15_193" x1="24" y1="4.79381" x2="24" y2="43.7232" gradientUnits="userSpaceOnUse">
<stop stop-color="#71A2FF"/>
<stop offset="1" stop-color="#F7ECFF" stop-opacity="0.9"/>
</linearGradient>
</defs>
</svg>
