<svg viewBox="0 0 48 48" fill="none" xmlns="http://www.w3.org/2000/svg">
<path d="M16 28C16 28 19 32 24 32C29 32 32 28 32 28M30 18H30.02M18 18H18.02M44 24C44 35.0457 35.0457 44 24 44C12.9543 44 4 35.0457 4 24C4 12.9543 12.9543 4 24 4C35.0457 4 44 12.9543 44 24ZM31 18C31 18.5523 30.5523 19 30 19C29.4477 19 29 18.5523 29 18C29 17.4477 29.4477 17 30 17C30.5523 17 31 17.4477 31 18ZM19 18C19 18.5523 18.5523 19 18 19C17.4477 19 17 18.5523 17 18C17 17.4477 17.4477 17 18 17C18.5523 17 19 17.4477 19 18Z" stroke="url(#paint0_linear_15_184)" stroke-width="2" stroke-linecap="round" stroke-linejoin="round"/>
<defs>
<linearGradient id="paint0_linear_15_184" x1="24" y1="4" x2="24" y2="44" gradientUnits="userSpaceOnUse">
<stop stop-color="#71A2FF"/>
<stop offset="1" stop-color="#F7ECFF" stop-opacity="0.9"/>
</linearGradient>
</defs>
</svg>
