<svg viewBox="0 0 48 48" fill="none" xmlns="http://www.w3.org/2000/svg">
<path d="M5.3735 31.2902L9.18989 29.0871C9.39661 28.9678 9.63919 28.9263 9.87381 28.9702L17.3828 30.3756C17.9999 30.491 18.5696 30.016 18.5668 29.3882L18.5375 22.8089C18.5367 22.6301 18.5839 22.4544 18.674 22.3001L22.4635 15.8124C22.6607 15.4748 22.643 15.0532 22.4182 14.7332L16.0378 5.65137M38.0004 9.7181C27.0004 15.0001 33.0001 22.0001 35.0004 23.0001C38.7546 24.8768 43.9753 25 43.9753 25C43.9916 24.6687 44 24.3353 44 24C44 12.9543 35.0457 4 24 4C12.9543 4 4 12.9543 4 24C4 35.0457 12.9543 44 24 44C24.3353 44 24.6687 43.9917 25 43.9754M33.5156 43.8796L27.182 27.182L43.8796 33.5156L36.4753 36.4753L33.5156 43.8796Z" stroke="url(#paint0_linear_15_154)" stroke-width="2" stroke-linecap="round" stroke-linejoin="round"/>
<defs>
<linearGradient id="paint0_linear_15_154" x1="24" y1="4" x2="24" y2="44" gradientUnits="userSpaceOnUse">
<stop stop-color="#71A2FF"/>
<stop offset="1" stop-color="#F7ECFF" stop-opacity="0.9"/>
</linearGradient>
</defs>
</svg>
