<svg viewBox="0 0 42 26" fill="none" xmlns="http://www.w3.org/2000/svg">
<path d="M18.6667 19L22 13H14L17.3333 7M41 15V11M10.6 25H25.4C28.7603 25 30.4405 25 31.7239 24.346C32.8529 23.7708 33.7708 22.8529 34.346 21.7239C35 20.4405 35 18.7603 35 15.4V10.6C35 7.23969 35 5.55953 34.346 4.27606C33.7708 3.14708 32.8529 2.2292 31.7239 1.65396C30.4405 1 28.7603 1 25.4 1H10.6C7.23969 1 5.55953 1 4.27606 1.65396C3.14708 2.2292 2.2292 3.14708 1.65396 4.27606C1 5.55953 1 7.23968 1 10.6V15.4C1 18.7603 1 20.4405 1.65396 21.7239C2.2292 22.8529 3.14708 23.7708 4.27606 24.346C5.55953 25 7.23968 25 10.6 25Z" stroke="url(#paint0_linear_15_205)" stroke-width="2" stroke-linecap="round" stroke-linejoin="round"/>
<defs>
<linearGradient id="paint0_linear_15_205" x1="21" y1="1" x2="21" y2="25" gradientUnits="userSpaceOnUse">
<stop stop-color="#71A2FF"/>
<stop offset="1" stop-color="#F7ECFF" stop-opacity="0.9"/>
</linearGradient>
</defs>
</svg>
