<svg xmlns="http://www.w3.org/2000/svg" viewBox="0 0 32 49" fill="none">
<path fill-rule="evenodd" clip-rule="evenodd" d="M29.6666 15.1667V33.8333C29.6666 41.3812 23.5478 47.5 15.9999 47.5C8.45203 47.5 2.33325 41.3812 2.33325 33.8333V15.1667C2.33325 7.61878 8.45203 1.5 15.9999 1.5C23.5478 1.5 29.6666 7.61877 29.6666 15.1667ZM0.833252 15.1667C0.833252 6.79035 7.6236 0 15.9999 0C24.3762 0 31.1666 6.79035 31.1666 15.1667V33.8333C31.1666 42.2097 24.3762 49 15.9999 49C7.6236 49 0.833252 42.2097 0.833252 33.8333V15.1667ZM15.9999 7.77778C15.3556 7.77778 14.8333 8.30011 14.8333 8.94444V20.6111C14.8333 21.2554 15.3556 21.7778 15.9999 21.7778C16.6443 21.7778 17.1666 21.2554 17.1666 20.6111V8.94444C17.1666 8.30011 16.6443 7.77778 15.9999 7.77778Z" fill="white"/>
</svg>