<svg xmlns="http://www.w3.org/2000/svg" viewBox="0 0 49 48" fill="none" xmlns="http://www.w3.org/2000/svg" aria-hidden="true">
      <path
        d="M21.8093 14.3945L21.5293 13.9803C20.9995 13.1965 19.9392 12.9916 19.1625 13.5166L19.0326 13.6044C17.9839 14.3133 17.7081 15.7435 18.4218 16.7994L18.4262 16.8059L18.4303 16.8125L20.4507 20.012L24.9041 27.0646L24.9304 27.1062L24.9406 27.1329C24.9439 27.1388 24.9513 27.1522 24.965 27.1754C24.9905 27.2187 25.0273 27.279 25.0749 27.3552C25.1697 27.5072 25.3013 27.713 25.4582 27.9556C25.7717 28.4403 26.1815 29.0645 26.5891 29.6823C26.9965 30.2998 27.401 30.9097 27.7038 31.3653C27.8551 31.5931 27.981 31.7823 28.0691 31.9145L28.1712 32.0678L28.198 32.1081L28.2049 32.1185L28.2066 32.1211L28.2071 32.1217L28.2072 32.1219L27.7912 32.3993L28.2072 32.1219L28.883 33.1354L27.6901 32.889C27.0047 32.7474 26.2279 32.5773 25.5061 32.3954L25.5057 32.3953C24.762 32.2072 23.8657 32.2113 22.9915 32.348C22.1185 32.4846 21.3084 32.7471 20.7446 33.0414L20.7433 33.0421C20.1396 33.355 19.8641 33.6727 19.7749 33.9366L19.7738 33.9399C19.7333 34.0572 19.7005 34.1831 19.6717 34.3215C19.587 34.7534 19.5899 35.2336 19.7003 35.6349C19.8108 36.0369 20.0103 36.3043 20.2777 36.4298L20.2787 36.4303C20.54 36.5537 20.8603 36.5577 21.358 36.5492L21.3582 36.5492C21.4643 36.5474 21.5954 36.5375 21.7465 36.5261C22.3305 36.482 23.2136 36.4152 24.111 36.7077C25.819 37.2611 29.6705 38.4442 31.9225 38.9724C32.1398 38.9744 32.4407 39.0111 32.7027 39.043C32.7342 39.0468 32.7652 39.0506 32.7954 39.0543C33.1586 39.098 33.426 39.1243 33.5427 39.1124L33.5619 39.1104L33.5812 39.1099C34.1824 39.0953 34.7447 39.0986 35.2135 39.1203C35.6664 39.1414 36.0703 39.181 36.3365 39.2519C36.3364 39.2519 36.3363 39.2519 36.3363 39.2518C36.3363 39.2516 36.3564 39.2553 36.4061 39.2577C36.4608 39.2604 36.5315 39.2609 36.616 39.2589C36.7846 39.2551 36.9867 39.2422 37.1851 39.2261C37.3824 39.2101 37.5706 39.1913 37.7098 39.1766C37.7793 39.1692 37.8362 39.1629 37.8756 39.1584L37.9209 39.1531L37.9324 39.1518L37.9352 39.1515L37.9359 39.1514L37.936 39.1514L37.9589 39.1486L37.9819 39.148C39.1256 39.1169 40.9811 38.5955 42.7534 37.3975C42.9158 37.2878 43.0756 37.1809 43.2324 37.0761C43.9843 36.5732 44.6679 36.116 45.2428 35.6025C45.9246 34.9934 46.4116 34.339 46.6275 33.5037L46.6749 33.3206L46.6785 33.3181C47.1107 31.452 46.8205 29.4913 45.7188 27.8615L45.7171 27.8589L45.7153 27.8563L45.7135 27.8537L45.7117 27.851L45.7099 27.8484L45.7081 27.8457L45.7063 27.8429L45.7044 27.8402L45.7025 27.8374L45.7006 27.8346L45.6987 27.8317L45.6968 27.8289L45.6948 27.826L45.6928 27.8231L45.6909 27.8201L45.6889 27.8172L45.6868 27.8142L45.6848 27.8112L45.6828 27.8081L45.6807 27.8051L45.6786 27.802L45.6765 27.7989L45.6744 27.7957L45.6722 27.7926L45.6701 27.7894L45.6679 27.7862L45.6657 27.7829L45.6635 27.7797L45.6613 27.7764L45.6591 27.7731L45.6568 27.7698L45.6546 27.7664L45.6523 27.763L45.65 27.7596L45.6477 27.7562L45.6453 27.7528L45.643 27.7493L45.6406 27.7458L45.6383 27.7423L45.6359 27.7388L45.6335 27.7352L45.631 27.7316L45.6286 27.728L45.6262 27.7244L45.6237 27.7208L45.6212 27.7171L45.6187 27.7134L45.6162 27.7097L45.6137 27.7059L45.6111 27.7022L45.6086 27.6984L45.606 27.6946L45.6034 27.6908L45.6008 27.687L45.5982 27.6831L45.5956 27.6792L45.593 27.6753L45.5903 27.6714L45.5876 27.6674L45.585 27.6635L45.5823 27.6595L45.5796 27.6555L45.5768 27.6515L45.5741 27.6474L45.5714 27.6433L45.5686 27.6393L45.5658 27.6352L45.563 27.631L45.5602 27.6269L45.5574 27.6227L45.5546 27.6185L45.5518 27.6143L45.5489 27.6101L45.546 27.6059L45.5432 27.6016L45.5403 27.5973L45.5374 27.5931L45.5344 27.5887L45.5315 27.5844L45.5286 27.5801L45.5256 27.5757L45.5227 27.5713L45.5197 27.5669L45.5167 27.5625L45.5137 27.558L45.5107 27.5536L45.5077 27.5491L45.5046 27.5446L45.5016 27.5401L45.4985 27.5356L45.4955 27.531L45.4924 27.5265L45.4893 27.5219L45.4862 27.5173L45.4831 27.5127L45.4799 27.5081L45.4768 27.5034L45.4736 27.4988L45.4705 27.4941L45.4673 27.4894L45.4641 27.4847L45.4609 27.48L45.4577 27.4753L45.4545 27.4705L45.4513 27.4657L45.4481 27.461L45.4448 27.4562L45.4416 27.4514L45.4383 27.4465L45.435 27.4417L45.4318 27.4368L45.4285 27.432L45.4252 27.4271L45.4219 27.4222L45.4185 27.4173L45.4152 27.4123L45.4119 27.4074L45.4085 27.4024L45.4051 27.3975L45.4018 27.3925L45.3984 27.3875L45.395 27.3825L45.3916 27.3774L45.3882 27.3724L45.3848 27.3673L45.3814 27.3623L45.3779 27.3572L45.3745 27.3521L45.371 27.347L45.3676 27.3419L45.3641 27.3368L45.3607 27.3316L45.3572 27.3265L45.3537 27.3213L45.3502 27.3161L45.3467 27.3109L45.3432 27.3057L45.3396 27.3005L45.3361 27.2953L45.3326 27.2901L45.329 27.2848L45.3255 27.2796L45.3219 27.2743L45.3183 27.269L45.3148 27.2637L45.3112 27.2584L45.3076 27.2531L45.304 27.2478L45.3004 27.2424L45.2968 27.2371L45.2931 27.2317L45.2895 27.2264L45.2859 27.221L45.2822 27.2156L45.2786 27.2102L45.2749 27.2048L45.2713 27.1994L45.2676 27.194L45.2639 27.1886L45.2603 27.1831L45.2566 27.1777L45.2529 27.1722L45.2492 27.1667L45.2455 27.1613L45.2418 27.1558L45.2381 27.1503L45.2343 27.1448L45.2306 27.1393L45.2269 27.1337L45.2232 27.1282L45.2194 27.1227L45.2157 27.1171L45.2119 27.1116L45.2081 27.106L45.2044 27.1004L45.2006 27.0949L45.1968 27.0893L45.1931 27.0837L45.1893 27.0781L45.1855 27.0725L45.1817 27.0669L45.1779 27.0613L45.1741 27.0556L45.1703 27.05L45.1665 27.0444L45.1627 27.0387L45.1589 27.0331L45.155 27.0274L45.1512 27.0218L45.1474 27.0161L45.1435 27.0104L45.1397 27.0047L45.1359 26.9991L45.132 26.9934L45.1282 26.9877L45.1243 26.982L45.1204 26.9763L45.1166 26.9706L45.1127 26.9648L45.1089 26.9591L45.105 26.9534L45.1011 26.9477L45.0972 26.9419L45.0933 26.9362L45.0895 26.9304L45.0856 26.9247L45.0817 26.9189L45.0778 26.9132L45.0739 26.9074L45.07 26.9017L45.0661 26.8959L45.0622 26.8901L45.0583 26.8843L45.0544 26.8786L45.0505 26.8728L45.0466 26.867L45.0427 26.8612L45.0388 26.8554L45.0349 26.8496L45.0309 26.8438L45.027 26.838L45.0231 26.8323L45.0192 26.8264L45.0153 26.8206L45.0113 26.8148L45.0074 26.809L45.0035 26.8032L44.9995 26.7974L44.9956 26.7916L44.9917 26.7858L44.9878 26.78L44.9838 26.7742L44.9799 26.7683L44.976 26.7625L44.972 26.7567L44.9681 26.7509L44.9642 26.7451L44.9602 26.7392L44.9563 26.7334L44.9523 26.7276L44.9484 26.7218L44.9445 26.7159L44.9405 26.7101L44.9366 26.7043L44.9327 26.6985L44.9287 26.6926L44.9248 26.6868L44.9209 26.681L44.9169 26.6752L44.913 26.6694L44.9091 26.6635L44.9051 26.6577L44.9012 26.6519L44.8973 26.6461L44.8933 26.6403L44.8894 26.6345L44.8855 26.6287L44.8815 26.6228L44.8776 26.617L44.8737 26.6112L44.8698 26.6054L44.8658 26.5996L44.8619 26.5938L44.858 26.588L44.8541 26.5822L44.8502 26.5764L44.8463 26.5706L44.8423 26.5649L44.8384 26.5591L44.8345 26.5533L44.8306 26.5475L44.8267 26.5417L44.8228 26.536L44.8189 26.5302L44.815 26.5244L44.8111 26.5187L44.8072 26.5129L44.8033 26.5071L44.7995 26.5014L44.7956 26.4957L44.7917 26.4899L44.7878 26.4842L44.7839 26.4784L44.7801 26.4727L44.7762 26.467L44.7723 26.4613L44.7685 26.4556L44.7646 26.4498L44.7608 26.4441L44.7569 26.4384L44.753 26.4327L44.7492 26.4271L44.7454 26.4214L44.7415 26.4157L44.7377 26.41L44.7339 26.4044L44.73 26.3987L44.7262 26.393L44.7224 26.3874L44.7186 26.3818L44.7148 26.3761L44.711 26.3705L44.7072 26.3649L44.7034 26.3593L44.6996 26.3536L44.6958 26.348L44.692 26.3425L44.6882 26.3369L44.6845 26.3313L44.6807 26.3257L44.6769 26.3202L44.6732 26.3146L44.6694 26.309L44.6657 26.3035L44.6619 26.298L44.6582 26.2924L44.6545 26.2869L44.6508 26.2814L44.647 26.2759L44.6433 26.2704L44.6396 26.2649L44.6359 26.2595L44.6322 26.254L44.6285 26.2485L44.6249 26.2431L44.6212 26.2377L44.6175 26.2322L44.6138 26.2268L44.6102 26.2214L44.6065 26.216L44.6029 26.2106L44.5993 26.2052L44.5956 26.1999L44.592 26.1945L44.5884 26.1892L44.5848 26.1838L44.5812 26.1785L44.5776 26.1732L44.574 26.1679L44.5704 26.1626L44.5668 26.1573L44.5633 26.152L44.5597 26.1467L44.5562 26.1415L44.5526 26.1362L44.5491 26.131L44.5456 26.1258L44.542 26.1206L44.5385 26.1154L44.535 26.1102L44.5315 26.105L44.528 26.0999L44.5246 26.0947L44.5211 26.0896L44.5176 26.0845L44.5142 26.0793L44.5107 26.0742L44.5073 26.0692L44.5039 26.0641L44.5004 26.059L44.497 26.054L44.4936 26.049L44.4902 26.0439L44.4868 26.0389L44.4835 26.0339L44.4801 26.029L44.4767 26.024L44.4734 26.019L44.4701 26.0141L44.4667 26.0092L44.4634 26.0043L44.4601 25.9994L44.4568 25.9945L44.4535 25.9896L44.4502 25.9848L44.447 25.9799L44.4437 25.9751L44.4405 25.9703L44.4372 25.9655L44.434 25.9607L44.4308 25.956L44.4276 25.9512L44.4244 25.9465L44.4212 25.9418L44.418 25.9371L44.4148 25.9324L44.4117 25.9277L44.4085 25.9231L44.4054 25.9185L44.4023 25.9138L44.3992 25.9092L44.3961 25.9046L44.393 25.9001L44.3899 25.8955L44.3868 25.891L44.3838 25.8865L44.3808 25.882L44.3777 25.8775L44.3747 25.873L44.3717 25.8686L44.3687 25.8641L44.3657 25.8597L44.3627 25.8553L44.3598 25.851L44.3568 25.8466L44.3539 25.8423L44.351 25.8379L44.3481 25.8336L44.3452 25.8293L44.3423 25.8251L44.3394 25.8208L44.3366 25.8166L44.3337 25.8124L44.3309 25.8082L44.3281 25.804L44.3252 25.7999L44.3224 25.7957L44.3197 25.7916L44.3169 25.7875L44.3141 25.7834L44.3114 25.7794L44.3087 25.7753L44.306 25.7713L44.3033 25.7673L44.3006 25.7633L44.2979 25.7594L44.2952 25.7554L44.2926 25.7515L44.2899 25.7476L44.2873 25.7438L44.2847 25.7399L44.2821 25.7361L44.2796 25.7323L44.277 25.7285L44.2744 25.7247L44.2719 25.721L44.2694 25.7172L44.2669 25.7135L44.2644 25.7098L44.2619 25.7062L44.2595 25.7025L44.257 25.6989L44.2546 25.6953L44.2522 25.6918L44.2498 25.6882L44.2474 25.6847L44.245 25.6812L44.2427 25.6777L44.2403 25.6742L44.238 25.6708L44.2357 25.6674L44.2334 25.664L44.2311 25.6606L44.2289 25.6573L44.2266 25.654L44.2244 25.6507L44.2222 25.6474L44.22 25.6442L44.2178 25.6409L44.2157 25.6377L44.2135 25.6346L44.2114 25.6314L44.2093 25.6283L44.2072 25.6252L44.2051 25.6221L44.203 25.6191L44.201 25.616L44.199 25.613L44.1969 25.61L44.1949 25.6071L44.193 25.6042L44.191 25.6013L44.1891 25.5984L44.1871 25.5955L44.1852 25.5927L44.1833 25.5899L44.1815 25.5871L44.1796 25.5844L44.1778 25.5817L44.1759 25.579L44.1741 25.5763L44.1724 25.5737L44.1706 25.5711L44.1688 25.5685L44.1671 25.5659L44.1654 25.5634L44.1637 25.5609L44.162 25.5584L44.1604 25.5559L44.1587 25.5535L44.1571 25.5511L44.1555 25.5487L44.1539 25.5464L44.1524 25.5441L44.1508 25.5418L44.1493 25.5395L44.1478 25.5373L44.1463 25.5351L44.1448 25.5329L44.1434 25.5308L44.1419 25.5287L44.1405 25.5266L44.1391 25.5245L44.1378 25.5225L44.1364 25.5205L44.1351 25.5185L44.1338 25.5166L44.1325 25.5147L44.1312 25.5128L44.13 25.5109L44.1287 25.5091L44.1275 25.5073L40.0037 19.4067C39.8786 19.2215 39.5904 18.8407 39.1866 18.5523C38.7891 18.2685 38.321 18.1006 37.7867 18.2367C37.2422 18.3767 36.861 18.715 36.5957 19.1308L36.5473 19.2066L36.4756 19.2607L36.3752 19.3366L36.346 19.3592L36.0207 19.6107L35.7111 19.3402C35.1274 18.8301 34.4958 18.728 33.8546 19.0156C32.9858 19.4062 32.6299 19.9857 32.4783 20.4039L32.2712 20.9754L31.7504 20.6619C31.3746 20.4357 30.9925 20.349 30.6153 20.3863C30.2355 20.4239 29.8274 20.5907 29.4113 20.9258L21.8093 14.3945ZM21.8093 14.3945L21.8093 14.3945M21.8093 14.3945L21.8093 14.3945M21.8093 14.3945L24.0601 17.7242L27.5771 22.9272L28.3522 24.0739L28.4889 22.6966C28.5551 22.03 28.8165 21.4069 29.4107 20.9263L21.8093 14.3945Z"
        stroke="white"
      />
</svg>