<svg viewBox="0 0 116 36" fill="none" xmlns="http://www.w3.org/2000/svg" preserveAspectRatio="xMidYMid meet">
<title id="logoTitle">Название Компании</title>
<desc>Логотип компании</desc>
<path d="M17.0013 17.9421L16.7422 3.11241C16.7397 2.96758 16.8564 2.84881 17.0013 2.84881V2.84881C17.1461 2.84881 17.2628 2.96758 17.2603 3.11241L17.0013 17.9421Z" fill="url(#paint0_linear_286_3805)"/>
<path d="M17.0166 17.9443L20.6046 3.55287C20.6396 3.41232 20.7831 3.32781 20.923 3.3653V3.3653C21.0629 3.40279 21.1449 3.54772 21.105 3.68696L17.0166 17.9443Z" fill="url(#paint1_linear_286_3805)"/>
<path d="M17.0305 17.9501L24.221 4.97773C24.2912 4.85104 24.4517 4.80654 24.5771 4.87897V4.87897C24.7026 4.9514 24.7442 5.11261 24.6696 5.23677L17.0305 17.9501Z" fill="url(#paint2_linear_286_3805)"/>
<path d="M17.0426 17.9599L27.3456 7.29059C27.4462 7.18639 27.6127 7.18494 27.7151 7.28736V7.28736C27.8176 7.38979 27.8161 7.5563 27.7119 7.65692L17.0426 17.9599Z" fill="url(#paint3_linear_286_3805)"/>
<path d="M17.0515 17.9718L29.7649 10.3327C29.889 10.2581 30.0503 10.2998 30.1227 10.4252V10.4252C30.1951 10.5507 30.1506 10.7111 30.0239 10.7813L17.0515 17.9718Z" fill="url(#paint4_linear_286_3805)"/>
<path d="M17.057 17.9863L31.3143 13.8979C31.4536 13.8579 31.5985 13.9399 31.636 14.0798V14.0798C31.6735 14.2197 31.589 14.3632 31.4484 14.3983L17.057 17.9863Z" fill="url(#paint5_linear_286_3805)"/>
<path d="M17.0588 18.0019L31.8885 17.7429C32.0333 17.7404 32.1521 17.8571 32.1521 18.0019V18.0019C32.1521 18.1468 32.0333 18.2635 31.8885 18.261L17.0588 18.0019Z" fill="url(#paint6_linear_286_3805)"/>
<path d="M17.0568 18.017L31.4482 21.605C31.5887 21.64 31.6732 21.7835 31.6357 21.9234V21.9234C31.5982 22.0633 31.4533 22.1453 31.3141 22.1054L17.0568 18.017Z" fill="url(#paint7_linear_286_3805)"/>
<path d="M17.0503 18.0307L30.0227 25.2212C30.1493 25.2915 30.1938 25.4519 30.1214 25.5774V25.5774C30.049 25.7028 29.8878 25.7445 29.7636 25.6699L17.0503 18.0307Z" fill="url(#paint8_linear_286_3805)"/>
<path d="M17.0409 18.0429L27.7102 28.3459C27.8144 28.4465 27.8159 28.6131 27.7135 28.7155V28.7155C27.611 28.8179 27.4445 28.8165 27.3439 28.7123L17.0409 18.0429Z" fill="url(#paint9_linear_286_3805)"/>
<path d="M17.0286 18.0517L24.6678 30.7651C24.7424 30.8893 24.7007 31.0505 24.5752 31.1229V31.1229C24.4498 31.1953 24.2893 31.1508 24.2191 31.0241L17.0286 18.0517Z" fill="url(#paint10_linear_286_3805)"/>
<path d="M17.0144 18.0575L21.1028 32.3148C21.1427 32.454 21.0607 32.599 20.9208 32.6364V32.6364C20.7809 32.6739 20.6374 32.5894 20.6024 32.4489L17.0144 18.0575Z" fill="url(#paint11_linear_286_3805)"/>
<path d="M16.9992 18.0588L17.2582 32.8885C17.2608 33.0333 17.1441 33.1521 16.9992 33.1521V33.1521C16.8544 33.1521 16.7377 33.0333 16.7402 32.8885L16.9992 18.0588Z" fill="url(#paint12_linear_286_3805)"/>
<path d="M16.9839 18.0566L13.3959 32.448C13.3608 32.5886 13.2174 32.6731 13.0775 32.6356V32.6356C12.9375 32.5981 12.8555 32.4532 12.8955 32.3139L16.9839 18.0566Z" fill="url(#paint13_linear_286_3805)"/>
<path d="M16.97 18.0508L9.77949 31.0231C9.70927 31.1498 9.54881 31.1943 9.42336 31.1219V31.1219C9.29792 31.0495 9.25623 30.8883 9.33083 30.7641L16.97 18.0508Z" fill="url(#paint14_linear_286_3805)"/>
<path d="M16.9581 18.041L6.65514 28.7103C6.55451 28.8145 6.38801 28.8159 6.28558 28.7135V28.7135C6.18315 28.6111 6.18461 28.4446 6.28881 28.344L16.9581 18.041Z" fill="url(#paint15_linear_286_3805)"/>
<path d="M16.949 18.029L4.23559 25.6682C4.11143 25.7428 3.95022 25.7011 3.87779 25.5756V25.5756C3.80537 25.4502 3.84987 25.2897 3.97656 25.2195L16.949 18.029Z" fill="url(#paint16_linear_286_3805)"/>
<path d="M16.9435 18.0146L2.68615 22.103C2.54691 22.1429 2.40199 22.0609 2.3645 21.921V21.921C2.327 21.7811 2.41152 21.6376 2.55207 21.6026L16.9435 18.0146Z" fill="url(#paint17_linear_286_3805)"/>
<path d="M16.9416 17.999L2.11198 18.258C1.96715 18.2605 1.84838 18.1438 1.84838 17.9989V17.9989C1.84838 17.8541 1.96715 17.7374 2.11198 17.7399L16.9416 17.999Z" fill="url(#paint18_linear_286_3805)"/>
<path d="M16.944 17.9839L2.55258 14.3959C2.41203 14.3609 2.32751 14.2174 2.365 14.0775V14.0775C2.4025 13.9376 2.54742 13.8556 2.68666 13.8955L16.944 17.9839Z" fill="url(#paint19_linear_286_3805)"/>
<path d="M16.95 17.9702L3.9776 10.7796C3.85091 10.7094 3.80641 10.549 3.87883 10.4235V10.4235C3.95126 10.2981 4.11247 10.2564 4.23663 10.331L16.95 17.9702Z" fill="url(#paint20_linear_286_3805)"/>
<path d="M16.9598 17.9585L6.29052 7.65543C6.18632 7.55481 6.18487 7.3883 6.28729 7.28588V7.28588C6.38972 7.18345 6.55623 7.18491 6.65685 7.28911L16.9598 17.9585Z" fill="url(#paint21_linear_286_3805)"/>
<path d="M16.9719 17.9491L9.33274 5.23577C9.25814 5.11161 9.29983 4.9504 9.42528 4.87797V4.87797C9.55072 4.80554 9.71118 4.85004 9.7814 4.97674L16.9719 17.9491Z" fill="url(#paint22_linear_286_3805)"/>
<path d="M16.9863 17.9439L12.8979 3.68658C12.858 3.54734 12.94 3.40241 13.0799 3.36492V3.36492C13.2198 3.32743 13.3633 3.41194 13.3984 3.55249L16.9863 17.9439Z" fill="url(#paint23_linear_286_3805)"/>
<path d="M17.0091 17.9422L18.688 3.20558C18.7044 3.06165 18.8356 2.95914 18.9792 2.97804V2.97804C19.1228 2.99695 19.223 3.12994 19.2016 3.2732L17.0091 17.9422Z" fill="white"/>
<path d="M17.0238 17.9467L22.4595 4.14669C22.5126 4.01192 22.6659 3.94686 22.7997 4.00229V4.00229C22.9335 4.05772 22.9959 4.21211 22.9382 4.34495L17.0238 17.9467Z" fill="white"/>
<path d="M17.0369 17.9545L25.8592 6.03161C25.9453 5.91517 26.1102 5.892 26.2251 5.98018V5.98018C26.3401 6.06836 26.3603 6.23363 26.2702 6.34699L17.0369 17.9545Z" fill="white"/>
<path d="M17.0475 17.9652L28.655 8.73192C28.7684 8.64175 28.9336 8.66204 29.0218 8.77696V8.77696C29.11 8.89188 29.0868 9.05677 28.9704 9.14293L17.0475 17.9652Z" fill="white"/>
<path d="M17.0549 17.979L30.6566 12.0646C30.7894 12.0069 30.9438 12.0693 30.9992 12.2031V12.2031C31.0547 12.3369 30.9896 12.4902 30.8548 12.5433L17.0549 17.979Z" fill="white"/>
<path d="M17.0584 17.9934L31.7274 15.8009C31.8706 15.7795 32.0036 15.8797 32.0225 16.0233V16.0233C32.0414 16.167 31.9389 16.2982 31.795 16.3146L17.0584 17.9934Z" fill="white"/>
<path d="M17.0583 18.009L31.795 19.6879C31.9389 19.7043 32.0414 19.8355 32.0225 19.9791V19.9791C32.0036 20.1227 31.8706 20.2229 31.7273 20.2015L17.0583 18.009Z" fill="white"/>
<path d="M17.054 18.0238L30.854 23.4596C30.9887 23.5127 31.0538 23.666 30.9984 23.7998V23.7998C30.9429 23.9336 30.7885 23.996 30.6557 23.9382L17.054 18.0238Z" fill="white"/>
<path d="M17.046 18.0371L28.9688 26.8593C29.0853 26.9455 29.1085 27.1104 29.0203 27.2253V27.2253C28.9321 27.3402 28.7668 27.3605 28.6535 27.2703L17.046 18.0371Z" fill="white"/>
<path d="M17.0348 18.047L26.2681 29.6545C26.3582 29.7679 26.338 29.9332 26.223 30.0213V30.0213C26.1081 30.1095 25.9432 30.0863 25.8571 29.9699L17.0348 18.047Z" fill="white"/>
<path d="M17.0214 18.0548L22.9358 31.6565C22.9935 31.7894 22.9312 31.9437 22.7973 31.9992V31.9992C22.6635 32.0546 22.5102 31.9895 22.4571 31.8548L17.0214 18.0548Z" fill="white"/>
<path d="M17.0067 18.0584L19.1992 32.7274C19.2206 32.8706 19.1204 33.0036 18.9768 33.0225V33.0225C18.8332 33.0414 18.702 32.9389 18.6856 32.795L17.0067 18.0584Z" fill="white"/>
<path d="M16.9914 18.0583L15.3125 32.7949C15.2961 32.9388 15.1649 33.0413 15.0213 33.0224V33.0224C14.8777 33.0035 14.7775 32.8705 14.7989 32.7273L16.9914 18.0583Z" fill="white"/>
<path d="M16.977 18.0538L11.5412 31.8538C11.4881 31.9886 11.3348 32.0536 11.201 31.9982V31.9982C11.0672 31.9428 11.0048 31.7884 11.0626 31.6555L16.977 18.0538Z" fill="white"/>
<path d="M16.9636 18.0465L8.14131 29.9694C8.05515 30.0858 7.89025 30.109 7.77533 30.0208V30.0208C7.66042 29.9326 7.64012 29.7674 7.7303 29.654L16.9636 18.0465Z" fill="white"/>
<path d="M16.953 18.0353L5.34547 27.2686C5.23211 27.3587 5.06684 27.3384 4.97866 27.2235V27.2235C4.89048 27.1086 4.91365 26.9437 5.0301 26.8575L16.953 18.0353Z" fill="white"/>
<path d="M16.9456 18.0215L3.3439 23.9358C3.21106 23.9936 3.05667 23.9312 3.00124 23.7974V23.7974C2.94581 23.6636 3.01087 23.5103 3.14565 23.4572L16.9456 18.0215Z" fill="white"/>
<path d="M16.9419 18.0071L2.27288 20.1995C2.12962 20.2209 1.99663 20.1207 1.97772 19.9771V19.9771C1.95882 19.8335 2.06134 19.7023 2.20526 19.6859L16.9419 18.0071Z" fill="white"/>
<path d="M16.9422 17.9915L2.20554 16.3126C2.06162 16.2962 1.9591 16.165 1.97801 16.0214V16.0214C1.99691 15.8777 2.1299 15.7775 2.27316 15.7989L16.9422 17.9915Z" fill="white"/>
<path d="M16.9465 17.9767L3.14654 12.5409C3.01176 12.4878 2.9467 12.3345 3.00213 12.2007V12.2007C3.05757 12.0669 3.21196 12.0045 3.3448 12.0623L16.9465 17.9767Z" fill="white"/>
<path d="M16.9545 17.9634L5.03165 9.14115C4.91521 9.05499 4.89204 8.89009 4.98022 8.77517V8.77517C5.0684 8.66025 5.23367 8.63996 5.34703 8.73014L16.9545 17.9634Z" fill="white"/>
<path d="M16.9656 17.953L7.73244 6.34548C7.64227 6.23212 7.66256 6.06684 7.77748 5.97866V5.97866C7.8924 5.89048 8.05729 5.91366 8.14345 6.0301L16.9656 17.953Z" fill="white"/>
<path d="M16.9791 17.9457L11.0647 4.34395C11.007 4.21111 11.0693 4.05672 11.2032 4.00129V4.00129C11.337 3.94586 11.4903 4.01092 11.5434 4.1457L16.9791 17.9457Z" fill="white"/>
<path d="M16.9937 17.9421L14.8013 3.27311C14.7799 3.12985 14.8801 2.99686 15.0237 2.97795V2.97795C15.1673 2.95905 15.2985 3.06157 15.3149 3.20549L16.9937 17.9421Z" fill="white"/>
<g filter="url(#filter0_f_286_3805)">
<path fill-rule="evenodd" clip-rule="evenodd" d="M17 10C17 14.4183 20.5817 18 25 18C20.5817 18 17 21.5817 17 26C17 21.5817 13.4183 18 9 18C13.4183 18 17 14.4183 17 10Z" fill="black" fill-opacity="0.7"/>
</g>
<path d="M81.9565 12.542V25.75H79.686V12.542H81.9565ZM79.5151 9.03857C79.5151 8.67236 79.625 8.36312 79.8447 8.11084C80.0726 7.85856 80.4062 7.73242 80.8457 7.73242C81.277 7.73242 81.6066 7.85856 81.8345 8.11084C82.0705 8.36312 82.1885 8.67236 82.1885 9.03857C82.1885 9.38851 82.0705 9.68962 81.8345 9.94189C81.6066 10.186 81.277 10.3081 80.8457 10.3081C80.4062 10.3081 80.0726 10.186 79.8447 9.94189C79.625 9.68962 79.5151 9.38851 79.5151 9.03857Z" fill="white"/>
<path d="M67.7231 15.0811V30.8281H65.4526V12.542H67.5278L67.7231 15.0811ZM76.6221 19.0361V19.2925C76.6221 20.2528 76.5081 21.1439 76.2803 21.9658C76.0524 22.7796 75.7188 23.4876 75.2793 24.0898C74.848 24.6921 74.3149 25.16 73.6802 25.4937C73.0454 25.8273 72.3171 25.9941 71.4951 25.9941C70.6569 25.9941 69.9163 25.8558 69.2734 25.5791C68.6305 25.3024 68.0853 24.8996 67.6377 24.3706C67.1901 23.8416 66.832 23.2069 66.5635 22.4663C66.3031 21.7257 66.124 20.8916 66.0264 19.9639V18.5967C66.124 17.6201 66.3071 16.7453 66.5757 15.9722C66.8442 15.1991 67.1982 14.5399 67.6377 13.9946C68.0853 13.4412 68.6265 13.0221 69.2612 12.7373C69.896 12.4443 70.6284 12.2979 71.4585 12.2979C72.2886 12.2979 73.0251 12.4606 73.668 12.7861C74.3109 13.1035 74.8521 13.5592 75.2915 14.1533C75.731 14.7474 76.0605 15.4595 76.2803 16.2896C76.5081 17.1115 76.6221 18.027 76.6221 19.0361ZM74.3516 19.2925V19.0361C74.3516 18.377 74.2824 17.7585 74.144 17.1807C74.0057 16.5947 73.79 16.082 73.4971 15.6426C73.2122 15.195 72.846 14.8451 72.3984 14.5928C71.9508 14.3324 71.4178 14.2021 70.7993 14.2021C70.2297 14.2021 69.7332 14.2998 69.3101 14.4951C68.895 14.6904 68.541 14.9549 68.248 15.2886C67.9551 15.6141 67.715 15.9884 67.5278 16.4116C67.3488 16.8267 67.2145 17.258 67.125 17.7056V20.8672C67.2878 21.4368 67.5156 21.974 67.8086 22.4785C68.1016 22.9749 68.4922 23.3778 68.9805 23.687C69.4688 23.9881 70.0832 24.1387 70.8237 24.1387C71.4341 24.1387 71.959 24.0125 72.3984 23.7603C72.846 23.4998 73.2122 23.1458 73.4971 22.6982C73.79 22.2507 74.0057 21.738 74.144 21.1602C74.2824 20.5742 74.3516 19.9517 74.3516 19.2925Z" fill="white"/>
<path d="M59.752 22.6982V12.542H62.0225V25.75H59.8618L59.752 22.6982ZM60.1792 19.915L61.1191 19.8906C61.1191 20.7695 61.0256 21.5833 60.8384 22.332C60.6593 23.0726 60.3664 23.7155 59.9595 24.2607C59.5526 24.806 59.0195 25.2332 58.3604 25.5425C57.7012 25.8436 56.8996 25.9941 55.9556 25.9941C55.3127 25.9941 54.7227 25.9006 54.1855 25.7134C53.6566 25.5262 53.2008 25.2373 52.8184 24.8467C52.4359 24.4561 52.1388 23.9474 51.9272 23.3208C51.7238 22.6942 51.6221 21.9414 51.6221 21.0625V12.542H53.8804V21.0869C53.8804 21.681 53.9455 22.1733 54.0757 22.564C54.214 22.9465 54.3971 23.2516 54.625 23.4795C54.861 23.6992 55.1214 23.8538 55.4062 23.9434C55.6992 24.0329 56.0003 24.0776 56.3096 24.0776C57.2699 24.0776 58.0308 23.8945 58.5923 23.5283C59.1538 23.154 59.5566 22.6535 59.8008 22.0269C60.0531 21.3921 60.1792 20.6882 60.1792 19.915Z" fill="white"/>
<path d="M41.2705 7V25.75H39V7H41.2705ZM49.3394 12.542L43.5776 18.7065L40.355 22.0513L40.1719 19.6465L42.479 16.8877L46.5806 12.542H49.3394ZM47.2764 25.75L42.5645 19.4512L43.7363 17.437L49.9375 25.75H47.2764Z" fill="white"/>
<path d="M102.708 18.7798H97.96V16.8633H102.708C103.628 16.8633 104.373 16.7168 104.942 16.4238C105.512 16.1309 105.927 15.724 106.188 15.2031C106.456 14.6823 106.59 14.0882 106.59 13.4209C106.59 12.8105 106.456 12.2368 106.188 11.6997C105.927 11.1626 105.512 10.7313 104.942 10.4058C104.373 10.0721 103.628 9.90527 102.708 9.90527H98.5093V25.75H96.1533V7.97656H102.708C104.051 7.97656 105.187 8.2085 106.114 8.67236C107.042 9.13623 107.746 9.77913 108.226 10.6011C108.706 11.4149 108.946 12.3467 108.946 13.3965C108.946 14.5358 108.706 15.5083 108.226 16.314C107.746 17.1196 107.042 17.734 106.114 18.1572C105.187 18.5723 104.051 18.7798 102.708 18.7798Z" fill="#FFD900"/>
<path d="M91.8687 7.97656V25.75H89.5127V7.97656H91.8687Z" fill="#FFD900"/>
<defs>
<filter id="filter0_f_286_3805" x="7" y="8" width="20" height="20" filterUnits="userSpaceOnUse" color-interpolation-filters="sRGB">
<feFlood flood-opacity="0" result="BackgroundImageFix"/>
<feBlend mode="normal" in="SourceGraphic" in2="BackgroundImageFix" result="shape"/>
<feGaussianBlur stdDeviation="1" result="effect1_foregroundBlur_286_3805"/>
</filter>
<linearGradient id="paint0_linear_286_3805" x1="17.0013" y1="17.9421" x2="17.0013" y2="2.84881" gradientUnits="userSpaceOnUse">
<stop stop-color="#FFD900"/>
<stop offset="1" stop-color="#D9BA07"/>
</linearGradient>
<linearGradient id="paint1_linear_286_3805" x1="17.0166" y1="17.9443" x2="20.923" y2="3.3653" gradientUnits="userSpaceOnUse">
<stop stop-color="#FFD900"/>
<stop offset="1" stop-color="#D9BA07"/>
</linearGradient>
<linearGradient id="paint2_linear_286_3805" x1="17.0305" y1="17.9501" x2="24.5771" y2="4.87897" gradientUnits="userSpaceOnUse">
<stop stop-color="#FFD900"/>
<stop offset="1" stop-color="#D9BA07"/>
</linearGradient>
<linearGradient id="paint3_linear_286_3805" x1="17.0426" y1="17.9599" x2="27.7151" y2="7.28736" gradientUnits="userSpaceOnUse">
<stop stop-color="#FFD900"/>
<stop offset="1" stop-color="#D9BA07"/>
</linearGradient>
<linearGradient id="paint4_linear_286_3805" x1="17.0515" y1="17.9718" x2="30.1227" y2="10.4252" gradientUnits="userSpaceOnUse">
<stop stop-color="#FFD900"/>
<stop offset="1" stop-color="#D9BA07"/>
</linearGradient>
<linearGradient id="paint5_linear_286_3805" x1="17.057" y1="17.9863" x2="31.636" y2="14.0798" gradientUnits="userSpaceOnUse">
<stop stop-color="#FFD900"/>
<stop offset="1" stop-color="#D9BA07"/>
</linearGradient>
<linearGradient id="paint6_linear_286_3805" x1="17.0588" y1="18.0019" x2="32.1521" y2="18.0019" gradientUnits="userSpaceOnUse">
<stop stop-color="#FFD900"/>
<stop offset="1" stop-color="#D9BA07"/>
</linearGradient>
<linearGradient id="paint7_linear_286_3805" x1="17.0568" y1="18.017" x2="31.6357" y2="21.9234" gradientUnits="userSpaceOnUse">
<stop stop-color="#FFD900"/>
<stop offset="1" stop-color="#D9BA07"/>
</linearGradient>
<linearGradient id="paint8_linear_286_3805" x1="17.0503" y1="18.0307" x2="30.1214" y2="25.5774" gradientUnits="userSpaceOnUse">
<stop stop-color="#FFD900"/>
<stop offset="1" stop-color="#D9BA07"/>
</linearGradient>
<linearGradient id="paint9_linear_286_3805" x1="17.0409" y1="18.0429" x2="27.7135" y2="28.7155" gradientUnits="userSpaceOnUse">
<stop stop-color="#FFD900"/>
<stop offset="1" stop-color="#D9BA07"/>
</linearGradient>
<linearGradient id="paint10_linear_286_3805" x1="17.0286" y1="18.0517" x2="24.5752" y2="31.1229" gradientUnits="userSpaceOnUse">
<stop stop-color="#FFD900"/>
<stop offset="1" stop-color="#D9BA07"/>
</linearGradient>
<linearGradient id="paint11_linear_286_3805" x1="17.0144" y1="18.0575" x2="20.9208" y2="32.6364" gradientUnits="userSpaceOnUse">
<stop stop-color="#FFD900"/>
<stop offset="1" stop-color="#D9BA07"/>
</linearGradient>
<linearGradient id="paint12_linear_286_3805" x1="16.9992" y1="18.0588" x2="16.9992" y2="33.1521" gradientUnits="userSpaceOnUse">
<stop stop-color="#FFD900"/>
<stop offset="1" stop-color="#D9BA07"/>
</linearGradient>
<linearGradient id="paint13_linear_286_3805" x1="16.9839" y1="18.0566" x2="13.0775" y2="32.6356" gradientUnits="userSpaceOnUse">
<stop stop-color="#FFD900"/>
<stop offset="1" stop-color="#D9BA07"/>
</linearGradient>
<linearGradient id="paint14_linear_286_3805" x1="16.97" y1="18.0508" x2="9.42336" y2="31.1219" gradientUnits="userSpaceOnUse">
<stop stop-color="#FFD900"/>
<stop offset="1" stop-color="#D9BA07"/>
</linearGradient>
<linearGradient id="paint15_linear_286_3805" x1="16.9581" y1="18.041" x2="6.28558" y2="28.7135" gradientUnits="userSpaceOnUse">
<stop stop-color="#FFD900"/>
<stop offset="1" stop-color="#D9BA07"/>
</linearGradient>
<linearGradient id="paint16_linear_286_3805" x1="16.949" y1="18.029" x2="3.87779" y2="25.5756" gradientUnits="userSpaceOnUse">
<stop stop-color="#FFD900"/>
<stop offset="1" stop-color="#D9BA07"/>
</linearGradient>
<linearGradient id="paint17_linear_286_3805" x1="16.9435" y1="18.0146" x2="2.3645" y2="21.921" gradientUnits="userSpaceOnUse">
<stop stop-color="#FFD900"/>
<stop offset="1" stop-color="#D9BA07"/>
</linearGradient>
<linearGradient id="paint18_linear_286_3805" x1="16.9416" y1="17.999" x2="1.84838" y2="17.9989" gradientUnits="userSpaceOnUse">
<stop stop-color="#FFD900"/>
<stop offset="1" stop-color="#D9BA07"/>
</linearGradient>
<linearGradient id="paint19_linear_286_3805" x1="16.944" y1="17.9839" x2="2.365" y2="14.0775" gradientUnits="userSpaceOnUse">
<stop stop-color="#FFD900"/>
<stop offset="1" stop-color="#D9BA07"/>
</linearGradient>
<linearGradient id="paint20_linear_286_3805" x1="16.95" y1="17.9702" x2="3.87883" y2="10.4235" gradientUnits="userSpaceOnUse">
<stop stop-color="#FFD900"/>
<stop offset="1" stop-color="#D9BA07"/>
</linearGradient>
<linearGradient id="paint21_linear_286_3805" x1="16.9598" y1="17.9585" x2="6.28729" y2="7.28588" gradientUnits="userSpaceOnUse">
<stop stop-color="#FFD900"/>
<stop offset="1" stop-color="#D9BA07"/>
</linearGradient>
<linearGradient id="paint22_linear_286_3805" x1="16.9719" y1="17.9491" x2="9.42528" y2="4.87797" gradientUnits="userSpaceOnUse">
<stop stop-color="#FFD900"/>
<stop offset="1" stop-color="#D9BA07"/>
</linearGradient>
<linearGradient id="paint23_linear_286_3805" x1="16.9863" y1="17.9439" x2="13.0799" y2="3.36492" gradientUnits="userSpaceOnUse">
<stop stop-color="#FFD900"/>
<stop offset="1" stop-color="#D9BA07"/>
</linearGradient>
</defs>
</svg>
